<svg id="Layer_1" data-name="Layer 1" xmlns="http://www.w3.org/2000/svg" viewBox="0 0 289.12 303.46"><defs><style>.cls-1{fill:#231f20;}</style></defs><title>logo</title><path class="cls-1" d="M315.49,118.88" transform="translate(-128.39 -142.94)"/><path d="M260.13,266.46c4.76-4.07,4.55-9.32,2.07-15.12C262.85,257.69,256.11,262.05,260.13,266.46Z" transform="translate(-128.39 -142.94)"/><path d="M382.43,197.06c-27-34.81-57.58-51-90.4-53.72-32.49-2.93-68.12,9.9-108,40.92a504.07,504.07,0,0,0-55.61,50.38L292.91,446.4a567.94,567.94,0,0,0,52.45-36.65c41.84-32.51,66.62-69.18,71.11-104.93C421.2,269.38,409.73,232.19,382.43,197.06ZM360,288.2h0a14.27,14.27,0,0,0-6.81-9.15c-4.71,22.57-15.45,37.67-28.42,47.37C300,345,267.11,343.83,252.49,337.54c-9.52-4.09-22.58-15-30.78-29.4s-11.53-32.46-3.87-50.4c3.41,46.57,26.9,60.75,41.74,66,7,2.46,17.07,2.83,26.82-.07,15.21-4.53,29.61-17,30.3-42-5.68,5.65-11.48,8.83-17.44,8.75,7.74-5,12.3-14.86,13.83-20.61,1.67-6.26,1.81-14.49-1.82-18.93-3.31-4-10.19-4.65-13.4-3.34a14.51,14.51,0,0,0-7.23,6.25c-1.72,3.26-2.18,8.71-.14,11.94a22.73,22.73,0,0,1,1.87,2.81,4.35,4.35,0,0,1-.07,2.72c-.53,2.44-2,7.18-3.12,11.48-1.53,5.89-2.26,11.16,2.1,10.46-4.54,6.34-6.43,5.34-7.41,5.21-1.27-.17-1.89,0-1.37-1.73l0-.33c-3.43,1.14-6.45,1-8.68-1.68a15.74,15.74,0,0,0,8.94-3c0-.09,0-.17,0-.26a7.46,7.46,0,0,1-6.19-.66,10.89,10.89,0,0,0,6.13-1.85q0-.29,0-.57a5.44,5.44,0,0,1-5.69-2,5.78,5.78,0,0,0,5.3-1.9l-.08-.55a5.25,5.25,0,0,1-4.74.15,7.24,7.24,0,0,0,4.39-2.3c-.35-1.94-.79-3.87-1.3-5.77l-.18-.3a53.71,53.71,0,0,0-6,9.8c-2.86,8-1.1,16.07,4.15,24.25a34.13,34.13,0,0,1-6-8.61c-.23,3.41-1.76,7.07-7.46,11.29,10.25-10.24,2.86-18.42,5.62-26.7l.11-.33a38.62,38.62,0,0,1,6.33-13.53c-2.38-1.85-4.74-1.63-7.1.2a11.61,11.61,0,0,0-1.33,1.25,7,7,0,0,0,4.56,1.58c-2.55,1.42-4.84,1.73-6.61.93l-.6.84c.85,2.61,2.16,4.5,4.32,5a8.59,8.59,0,0,1-7.06-.84l-.27.44c1,3.22,2.36,5.62,4.66,6.36-3.37,1.34-5.84.73-7.87-.88l-.17.31c1.86,3.09,4.28,5,7.52,5.42-3.44.76-6.79.91-9.81-1l-.14.31c1.78,3.22,4.71,4.7,8.44,5-3.36,2.08-6.78,2.67-10.31,1.15a10.61,10.61,0,0,0,0,2.51,9.91,9.91,0,0,1-6.82-7.22c-.6-2.11-.12-4.92-.06-7.77.07-3.65-.08-7.54,1-12.06a15.18,15.18,0,0,0,3.14,5c.45-1.26.57-2.45.84-3.48a21.7,21.7,0,0,0,1-5.37c0-1.75-.78-3-1.14-4.35a26.28,26.28,0,0,1-.42-3.91,57.34,57.34,0,0,0-6.75-21.57,19,19,0,0,1,10.48,9.82c3.83-10.33,1.5-19.5-9.85-27,7.9.93,13.61,5,16.67,12.88q11.27-14.51-2.58-27c7.8,1.51,12.33,6.9,14.16,15.5,12.12-6.69,16.66-15.13,10.14-26.15,7.05,3.05,10.79,8.46,8.6,18.06,13-.88,20.43-6.83,21.23-18.89,4.1,5.19,5.75,11.24.63,19.67q15.6,3.81,22.62-10.85a22.62,22.62,0,0,1-1.85,15.51c6.56,3.9,12.49,3,17.9-1.1a31,31,0,0,1-8.94,15.83c12.36,1.6,17.87,7.49,19.52,15.79q-5.82-2.75-13.35-.36C360,262.69,364.63,274.89,360,288.2Z" transform="translate(-128.39 -142.94)"/><rect y="91.7" width="9.28" height="211.76"/><rect x="206.02" y="359.48" width="9.28" height="164.55" transform="translate(524.03 88.16) rotate(90)"/></svg>